<svg width="100%" height="100%" viewBox="0 0 24 24" fill="none" xmlns="http://www.w3.org/2000/svg">
    <style>
        .fg { fill: #171717; }
        @media (prefers-color-scheme: dark) { .fg { fill: #F5F5F5; } }
    </style>
    <!-- Outer ring (Camera Lens Body) -->
    <path class="fg" fill-rule="evenodd" clip-rule="evenodd" d="M12 2C6.47715 2 2 6.47715 2 12C2 17.5228 6.47715 22 12 22C17.5228 22 22 17.5228 22 12C22 6.47715 17.5228 2 12 2ZM12 20C7.58172 20 4 16.4183 4 12C4 7.58172 7.58172 4 12 4C16.4183 4 20 7.58172 20 12C20 16.4183 16.4183 20 12 20Z"/>
    <!-- Inner circle (Lens Glass) -->
    <path class="fg" d="M12 7C9.23858 7 7 9.23858 7 12C7 14.7614 9.23858 17 12 17C14.7614 17 17 14.7614 17 12C17 9.23858 14.7614 7 12 7Z"/>
    <!-- Small Reflection Dot (optional, adds "lens" feel). 
         Let's subtract a small dot from the inner circle to make it look like a highlight.
         Actually, that's complicated with just paths. Let's keep it strictly geometric.
    -->
</svg>
